<?xml version="1.0" encoding="UTF-8" standalone="no" ?>
<!DOCTYPE svg PUBLIC "-//W3C//DTD SVG 1.1//EN" "http://www.w3.org/Graphics/SVG/1.1/DTD/svg11.dtd">
<svg xmlns="http://www.w3.org/2000/svg" xmlns:xlink="http://www.w3.org/1999/xlink" version="1.1" width="1080" height="1080" viewBox="0 0 1080 1080" xml:space="preserve">
<desc>Created with Fabric.js 5.3.0</desc>
<defs>
</defs>
<g transform="matrix(1.6587831368 0 0 1.6587831368 540 540)" id="0-PJW5F_D_u5pCo_7mB6z"  >
<path style="stroke: none; stroke-width: 1; stroke-dasharray: none; stroke-linecap: butt; stroke-dashoffset: 0; stroke-linejoin: miter; stroke-miterlimit: 4; fill: rgb(255,255,255); fill-rule: evenodd; opacity: 1;"  transform=" translate(-255.9753811041, -260.3768206999)" d="M 237.802 56.052 C 212.031 58.163 180.982 67.181 155.156 80.058 C 128.612 93.292 110.034 106.833 90.449 127.218 C 59.924 158.99 39.957 201.865 33.968 248.5 C 32.365 260.979 32.662 291.801 34.511 305 C 36.416 318.594 40.794 336.561 45.1 348.462 L 48.189 357 L 58.202 357 C 67.342 357 68.152 356.848 67.501 355.25 C 63.916 346.45 55.687 319.199 53.837 310 C 51.824 299.988 51.523 295.524 51.512 275.5 C 51.502 255.391 51.791 251.065 53.812 241.082 C 59.216 214.402 73.267 181.269 87.743 161.073 C 95.774 149.869 112.278 132.361 122.888 123.792 C 164.467 90.209 221.018 71.922 270.769 75.973 C 298.668 78.244 320.922 84.75 347.984 98.546 C 409.85 130.084 447.752 181.51 458.594 248.622 C 461.068 263.936 461.089 291.826 458.638 306.5 C 456.794 317.539 450.778 339.929 447.014 349.761 C 445.906 352.654 445 355.467 445 356.011 C 445 356.593 448.893 357 454.474 357 C 463.872 357 463.961 356.977 465.418 354.159 C 467.078 350.949 472.334 333.679 474.522 324.248 C 478.738 306.072 480.259 274.48 477.942 253.211 C 473.743 214.663 456.589 172.06 433.178 142.039 C 398.542 97.625 338.046 63.639 282 57.109 C 268.652 55.554 249.486 55.096 237.802 56.052 M 258 104.18 C 254.425 104.675 249.21 105.737 246.412 106.54 C 243.614 107.343 240.351 108 239.162 108 C 236.544 108 236.412 108.833 238.75 110.608 C 240.289 111.776 239.957 111.942 236 111.979 C 230.025 112.036 224 113.072 224 114.043 C 224 114.473 225.83 115.133 228.067 115.511 C 230.304 115.889 231.948 116.386 231.719 116.615 C 231.49 116.843 228.872 117.666 225.901 118.442 C 222.931 119.219 216 121.75 210.5 124.067 C 205 126.384 197.439 129.331 193.698 130.615 C 182.944 134.305 175.755 139.354 185.25 136.548 C 187.588 135.857 191.481 134.985 193.902 134.61 C 197.569 134.042 198.114 134.157 197.166 135.3 C 195.776 136.975 192.868 145 193.65 145 C 193.959 145 195.852 143.719 197.856 142.153 C 199.86 140.587 202.793 138.474 204.372 137.458 L 207.245 135.61 L 206.52 138.907 L 205.796 142.204 L 210.236 139.602 C 215.858 136.307 218.552 136.1 216.954 139.086 C 215.43 141.934 215.942 142.136 220.538 140.499 C 222.717 139.723 225.85 139.072 227.5 139.054 C 230.154 139.023 229.866 139.313 225 141.565 C 221.975 142.965 217.165 146.405 214.312 149.21 C 209.161 154.273 209.091 154.303 204.812 153.389 C 201.023 152.58 200.542 152.176 200.843 150.059 C 201.178 147.702 201.129 147.685 198.667 149.298 C 196.829 150.503 196.04 150.621 195.746 149.738 C 195.443 148.828 193.97 148.959 189.833 150.263 C 182.433 152.596 180.345 152.457 178.408 149.5 C 176.581 146.711 173.399 145.991 174.397 148.593 C 176.95 155.245 176.327 155.999 170.346 153.5 C 163.939 150.823 159.615 152.215 163.2 155.8 C 164.6 157.2 164.678 157.188 155.25 157.008 C 147.313 156.856 146.222 157.814 150.5 161.179 C 154.215 164.101 153.561 164.972 148.135 164.33 C 142.535 163.666 140.834 165.054 143.557 168.063 C 145.565 170.282 145.478 170.312 137.75 170.027 C 131.401 169.794 130.026 171.445 134.239 174.243 C 136.438 175.703 136.371 175.784 130.486 178.755 C 124.566 181.743 119.739 185.751 117.884 189.218 C 116.645 191.531 116.995 191.478 122.596 188.5 C 128.659 185.276 132.036 185.147 131.246 188.169 C 130.763 190.014 130.963 190.207 132.589 189.465 C 133.64 188.985 137.875 188.441 142 188.256 L 149.5 187.919 L 144.5 190.863 C 141.75 192.482 137.949 195.426 136.054 197.404 C 131.661 201.988 132.825 202.052 147 198 C 159.837 194.331 161.001 194.287 157.041 197.619 C 153.893 200.268 150.437 205.77 151.348 206.681 C 151.62 206.953 153.83 206.012 156.259 204.588 C 161.689 201.406 161.837 201.403 161.245 204.5 C 160.784 206.912 162.275 207.981 163.45 206.08 C 163.967 205.244 172.743 200 173.626 200 C 173.832 200 174 201.173 174 202.607 C 174 204.687 174.354 205.074 175.75 204.522 C 178.314 203.507 190.173 201.035 192.5 201.031 C 193.6 201.029 190.75 202.332 186.166 203.928 C 179.195 206.354 173.098 209.74 165.435 215.441 C 164.593 216.068 161.885 215.487 157.335 213.702 C 153.576 212.228 147.8 210.533 144.5 209.934 C 141.2 209.336 137.503 208.206 136.285 207.423 C 133.17 205.422 131.672 205.638 132.289 207.999 C 133.091 211.063 131.599 211.217 127.574 208.486 C 122.737 205.203 121.689 205.309 122.5 209 L 123.159 212 L 113.579 212 C 103.269 212 101.707 212.939 107.457 215.681 C 111.476 217.597 111.134 219.408 106.927 218.484 C 103.597 217.753 100 218.647 100 220.207 C 100 220.797 100.788 221.923 101.75 222.71 C 103.313 223.988 103.073 224.074 99.5 223.517 C 97.3 223.174 93.813 222.633 91.75 222.315 C 89.285 221.935 88 222.125 88 222.868 C 88 223.491 88.338 224.01 88.75 224.022 C 89.162 224.034 90.581 224.876 91.902 225.891 L 94.304 227.738 L 89.061 229.48 C 83.267 231.404 77.688 235.769 75.423 240.148 C 73.626 243.624 74.185 243.713 78.317 240.61 C 80.068 239.295 83.031 237.894 84.901 237.497 L 88.303 236.775 L 87.668 241.404 L 87.034 246.034 L 89.967 244.517 C 91.581 243.683 95.286 243.018 98.2 243.04 L 103.5 243.08 L 100.5 244.698 C 93.668 248.383 85 257.237 85 260.532 C 85 260.879 86.469 260.255 88.265 259.145 C 91.754 256.989 107.843 252 111.308 252 C 112.639 252 111.578 252.904 108.375 254.501 C 103.594 256.883 93.329 265.662 94.248 266.582 C 94.488 266.822 97.729 265.637 101.45 263.95 C 105.171 262.263 108.398 261.065 108.621 261.288 C 108.844 261.511 108.322 263.378 107.462 265.437 C 105.736 269.566 105.672 269.574 112.68 264.83 C 114.979 263.273 117.153 262 117.51 262 C 117.867 262 117.857 263.375 117.488 265.056 L 116.816 268.112 L 123.312 263.666 C 129.856 259.185 136.604 256.27 137.758 257.425 C 138.102 257.768 135.934 260.567 132.941 263.644 L 127.5 269.239 L 133 268.576 C 146.326 266.97 160.038 261.925 175.962 252.769 C 188.047 245.82 194.197 244.518 211.53 245.236 C 223.669 245.74 229.15 247.957 239.216 256.437 C 245.723 261.919 247.976 265.706 247.994 271.191 C 248.003 273.934 246.674 274.038 239.877 271.828 L 233.437 269.734 L 208.969 281.979 L 184.5 294.223 L 184.202 287.493 C 184.038 283.792 184.127 280.54 184.401 280.266 C 184.675 279.992 186.35 279.471 188.124 279.108 C 192.636 278.186 192.83 276.245 188.588 274.472 C 186.615 273.648 185 272.304 185 271.487 C 185 270.265 183.114 270 174.406 270 C 164.758 270 163.767 270.173 163.305 271.943 C 163.006 273.087 161.576 274.154 159.828 274.538 C 157.746 274.995 157.029 275.634 157.429 276.677 C 157.743 277.494 158 278.577 158 279.082 C 158 279.587 159.35 280 161 280 L 164 280 L 164 290.486 L 164 300.971 L 157.945 304.028 C 154.615 305.709 145.052 310.03 136.695 313.63 C 128.338 317.23 113.287 324.021 103.25 328.72 C 87.538 336.076 85 337.576 85 339.509 C 85 343.187 87.243 344.238 93.441 343.464 C 96.492 343.083 101.016 343.075 103.494 343.447 L 108 344.123 L 108 367.042 L 108 389.962 L 105.75 390.458 C 104.513 390.731 99 391.69 93.5 392.589 C 76.194 395.419 60.788 401.341 57.44 406.451 C 56.068 408.545 56.029 409.288 57.17 411.658 C 63.729 425.291 131.872 450.643 188.295 460.443 C 216.311 465.308 265.115 466.655 298.54 463.485 C 343.908 459.182 396.544 444.812 432.5 426.913 C 449.764 418.319 455.791 412.715 453.125 407.734 C 449.386 400.747 429.126 393.723 405.187 391.114 C 400.615 390.616 396.565 389.898 396.187 389.518 C 395.494 388.822 395.797 344.87 396.5 344.167 C 396.708 343.958 400.903 343.842 405.821 343.908 C 410.739 343.974 415.491 343.749 416.381 343.407 C 418.134 342.735 418.705 337 417.019 337 C 416.48 337 403.391 331.096 387.932 323.88 C 362.962 312.224 359.383 310.819 355.864 311.291 C 352.479 311.745 352.078 311.611 353.109 310.369 C 355.047 308.034 353.051 307.065 343.94 305.916 C 339.298 305.331 333.7 303.935 331.5 302.814 C 329.3 301.693 315.524 294.527 300.887 286.888 C 283.173 277.644 273.226 273 271.137 273 C 268.355 273 268 272.678 268 270.15 C 268 264.761 276.935 255.074 286.918 249.641 C 296.977 244.166 317.193 245.051 328.937 251.481 C 342.929 259.141 350.929 262.387 363.812 265.632 C 371.166 267.484 378.133 269 379.294 269 C 381.201 269 381.069 268.636 377.932 265.25 C 371.532 258.343 369.656 256.011 370.122 255.545 C 371.103 254.564 381.824 260.372 388.612 265.562 C 392.523 268.553 396.07 271 396.493 271 C 396.917 271 397.018 269.174 396.719 266.942 L 396.175 262.885 L 398.587 264.442 C 399.914 265.299 402.139 266.736 403.531 267.635 C 404.923 268.535 406.267 269.066 406.518 268.815 C 407.371 267.963 401.861 260.509 398.674 258.204 C 396.929 256.941 394.6 255.26 393.5 254.469 C 390.012 251.961 402.674 256.677 412.166 261.422 C 417.025 263.851 421 265.465 421 265.009 C 421 263.283 412.771 253.865 407.897 250.013 L 402.82 246 L 406.769 246 C 409.172 246 413.025 247.17 416.609 248.987 C 419.849 250.63 422.782 251.98 423.127 251.987 C 423.472 251.994 423.526 249.975 423.247 247.5 C 422.783 243.379 422.925 243 424.936 243 C 427.859 243 430.789 244.582 434.882 248.37 L 438.264 251.5 L 437.565 248.561 C 436.486 244.018 433.22 240.116 427.359 236.366 C 424.411 234.481 422 232.554 422 232.084 C 422 231.614 423.173 230.461 424.607 229.522 C 428.586 226.915 426.241 225.79 417.615 226.167 C 413.424 226.35 409.996 226.232 409.998 225.905 C 409.999 225.578 410.9 224.495 412 223.5 C 413.1 222.505 414 221.31 414 220.845 C 414 219.556 408.931 219.836 403.432 221.428 C 400.719 222.213 394.45 223.591 389.5 224.489 C 384.55 225.388 379.375 226.379 378 226.691 C 375.95 227.156 375.725 227.019 376.75 225.929 C 378.642 223.917 378.287 223.222 375 222.5 C 373.35 222.138 372 221.379 372 220.814 C 372 220.248 372.711 220.059 373.579 220.392 C 376.348 221.455 380.023 219.856 381.535 216.932 C 384.037 212.094 383.403 210.331 377.75 206.424 C 373.197 203.277 372.898 202.881 375.5 203.444 C 380.933 204.619 391.627 209.012 396.354 212.01 C 398.909 213.63 401 214.554 401 214.063 C 401 212.353 391.985 205.251 385.265 201.667 C 377.969 197.775 378.882 197.158 388.5 199.48 C 396.428 201.394 396.908 201.365 396.29 199 C 395.837 197.27 396.259 197 399.415 197 C 401.422 197 404.694 197.681 406.686 198.513 C 408.677 199.345 410.493 199.841 410.719 199.614 C 411.769 198.564 403.111 193.395 396.241 190.97 L 388.613 188.278 L 392.323 186.517 C 394.363 185.549 396.277 184.362 396.575 183.878 C 397.074 183.071 388.527 182.43 383.263 182.88 L 381.025 183.072 L 383.149 179.472 C 384.363 177.414 384.893 175.514 384.386 175.036 C 383.364 174.071 363.747 178.053 354.989 181.004 C 347.707 183.457 347.72 183.457 348.5 181 C 349.433 178.06 346.396 178.407 339.91 181.982 C 333.807 185.346 333 185.545 333 183.687 C 333 178.313 355.607 168.341 365.853 169.196 L 369.5 169.5 L 365.318 171.736 C 360.469 174.328 359.078 176 361.77 176 C 363.82 176 373 170.303 373 169.03 C 373 168.6 368.95 167.461 364 166.5 C 359.05 165.539 355 164.434 355 164.045 C 355 163.656 356.124 162.736 357.498 162.001 C 361.059 160.095 359.754 159.487 352.677 159.754 C 347.233 159.96 345.629 159.537 339.155 156.183 L 331.81 152.379 L 336.405 149.941 C 338.932 148.6 341 147.268 341 146.981 C 341 146.693 338.413 145.915 335.25 145.253 C 323.571 142.806 320.444 141.615 320.807 139.75 C 321.19 137.775 319.783 137.51 316.954 139.024 C 315.219 139.953 315.097 139.766 315.645 137.024 C 316.439 133.053 314.801 133.089 310.179 137.147 C 306.487 140.389 294.293 146.627 293.398 145.731 C 293.121 145.455 294.411 144.291 296.263 143.146 C 300.227 140.697 303.563 137.229 302.744 136.41 C 302.426 136.093 300.047 136.77 297.456 137.916 C 291.564 140.523 290.37 140.524 289.691 137.928 C 289.209 136.084 288.654 135.929 284.671 136.527 C 281.535 136.997 278.441 136.652 274.347 135.376 L 268.5 133.553 L 272.5 133.268 C 278.935 132.808 288.966 131.005 296.5 128.954 C 300.35 127.905 304.756 126.799 306.291 126.495 C 310.751 125.611 308.676 124.397 299.364 122.443 C 293.301 121.17 291.258 120.402 292.591 119.894 C 293.641 119.494 295.4 118.843 296.5 118.446 C 298.372 117.771 298.34 117.676 296 116.962 C 290.279 115.217 275.419 115.959 265.449 118.488 C 260.055 119.856 255.489 120.823 255.302 120.636 C 254.924 120.258 269.212 113.641 272.75 112.555 C 277.395 111.131 274.125 109.09 267 108.967 L 263.5 108.906 L 268.417 106.987 C 275.874 104.074 276.312 102.977 269.95 103.139 C 266.952 103.216 261.575 103.684 258 104.18 M 215.25 153.22 C 214.012 153.817 213 154.658 213 155.089 C 213 155.52 217.156 158.215 222.235 161.078 L 231.469 166.284 L 234.985 164.112 C 236.918 162.918 242.96 159.704 248.411 156.97 C 259.75 151.284 258.194 150.385 245 155 C 234.951 158.515 236 158.34 236 156.5 C 236 154.629 236.192 154.608 231.5 157 C 226.687 159.454 224.846 159.565 225.695 157.352 C 226.202 156.031 225.849 155.807 223.914 156.224 C 222.586 156.509 220.641 157.101 219.591 157.539 C 217.884 158.252 217.75 158.002 218.316 155.168 C 218.999 151.753 218.694 151.559 215.25 153.22 M 318 156.93 L 310.5 157.5 L 318.286 159.065 C 325.026 160.42 325.997 160.435 325.514 159.175 C 325.05 157.966 325.932 157.817 330.728 158.298 C 336.235 158.851 336.363 158.813 333.5 157.484 C 330.359 156.025 330.058 156.014 318 156.93 M 183.024 168.211 L 178.548 169.207 L 181.418 170.711 C 183.148 171.617 185.604 172.001 187.599 171.678 C 190.294 171.24 191.027 171.51 191.541 173.129 C 192.129 174.982 192.334 175.011 194.551 173.559 C 195.859 172.701 197.17 172 197.465 172 C 198.411 172 198.036 176.065 196.892 178.201 C 195.865 180.121 195.992 180.222 198.642 179.597 C 205.876 177.892 216 174.642 216 174.025 C 216 172.972 207.03 169.132 202 168.032 C 196.457 166.821 188.95 166.891 183.024 168.211 M 331.25 178.733 C 329.751 179.253 329.559 183 331.031 183 C 332.194 183 333.369 180.528 332.844 179.183 C 332.655 178.697 331.938 178.495 331.25 178.733 M 243.542 180.787 C 245.422 185.214 247.04 190.294 246.683 190.65 C 246.466 190.868 243.31 189.709 239.67 188.076 C 235.933 186.4 232.797 185.519 232.467 186.053 C 231.646 187.382 228.245 187.236 227.784 185.853 C 227.512 185.037 225.829 185.22 221.951 186.488 C 215.286 188.667 215.414 188.557 217.31 190.452 C 218.348 191.491 220.772 192.004 224.679 192.013 C 230.069 192.025 246.155 194.859 250.294 196.526 C 251.943 197.189 252.065 196.611 251.794 189.415 L 251.5 181.582 L 247.157 180.328 C 243.173 179.177 242.874 179.215 243.542 180.787 M 309.818 185.265 C 309.628 186.602 308.202 188.148 306.27 189.113 C 303.25 190.622 303.153 190.828 304.77 192.285 C 306.745 194.064 312.611 193.348 319.367 190.504 C 321.493 189.608 323.856 189.114 324.617 189.406 C 325.378 189.698 326 189.577 326 189.137 C 326 188.697 324.087 187.869 321.75 187.297 C 319.413 186.725 315.843 185.531 313.818 184.643 C 310.205 183.06 310.129 183.072 309.818 185.265 M 281.352 196.047 C 277.886 197.359 277.354 199.193 280.666 198.411 C 282.225 198.043 283.877 197.401 284.337 196.984 C 285.672 195.775 283.703 195.158 281.352 196.047 M 288.667 196.667 C 286.215 199.118 290.468 199.87 293.559 197.532 C 295.402 196.138 295.344 196.062 292.417 196.032 C 290.721 196.014 289.033 196.3 288.667 196.667 M 356.542 204.871 C 357.069 205.359 359.3 206.324 361.5 207.015 C 363.7 207.705 367.231 209.141 369.347 210.205 C 371.463 211.269 373.419 211.915 373.694 211.64 C 373.969 211.365 372.463 210.258 370.347 209.18 C 365.907 206.919 355.116 203.551 356.542 204.871 M 269.25 218.031 C 267.066 218.909 267 219.348 267 233.035 C 267 246.63 267.071 247.112 268.979 246.507 C 271.66 245.656 288.923 235.837 294.573 231.949 C 301.515 227.174 302.147 223.129 295.454 226.321 C 290.753 228.562 290 228.449 290 225.5 C 290 222.371 288.434 222.311 277.187 225.007 C 267.199 227.401 268 227.376 268 225.298 C 268 224.361 269.438 222.111 271.196 220.298 C 274.408 216.984 273.752 216.221 269.25 218.031 M 148.191 220.563 C 140.453 222.851 131.361 226.751 132.153 227.442 C 132.344 227.609 137.675 226.391 144 224.737 C 154.088 222.098 157.285 221.507 164 221.041 C 166.643 220.857 161.907 217.994 159.059 218.053 C 157.651 218.082 152.761 219.212 148.191 220.563 M 241.083 221.337 C 242.598 222.564 250 224.806 250 224.039 C 250 223.519 248.313 222.625 246.25 222.053 C 242.491 221.009 240.303 220.706 241.083 221.337 M 225 226 C 225 228.444 220.898 228.786 219 226.5 C 217.653 224.877 213 224.421 213 225.911 C 213 228.446 226.998 236.52 249.25 246.82 C 249.662 247.01 250 243.54 250 239.106 C 250 231.569 249.834 230.938 247.449 229.375 C 244.226 227.263 232.583 224 228.272 224 C 225.667 224 225 224.408 225 226 M 198.5 227.464 L 191.5 228.658 L 197.5 229.358 C 200.8 229.742 205.024 230.251 206.886 230.488 L 210.272 230.918 L 207.962 228.459 C 206.691 227.107 205.617 226.061 205.576 226.135 C 205.534 226.209 202.35 226.807 198.5 227.464 M 169 228.893 C 169 229.384 169.726 230.064 170.613 230.405 C 171.989 230.933 172.026 231.264 170.863 232.665 C 170.114 233.568 168.151 234.895 166.5 235.614 L 163.5 236.922 L 167.25 236.961 C 169.338 236.983 171 237.499 171 238.125 C 171 238.868 169.898 239.017 167.75 238.563 C 165.963 238.185 162.025 237.622 159 237.311 C 151.784 236.57 153.445 238.322 161.417 239.859 C 169.732 241.462 175.09 241.293 188.5 239 C 194.934 237.9 202.367 237 205.018 237 C 210.72 237 213.04 236.27 212.428 234.667 C 212.131 233.89 209.763 233.614 205.335 233.842 C 197.198 234.261 184.915 232.551 177.339 229.945 C 171.123 227.806 169 227.538 169 228.893 M 311.783 232.565 C 301.412 233.984 296.595 235.664 299.09 236.992 C 301.129 238.077 314.457 239.889 325.935 240.641 C 335.349 241.258 336.099 241.158 340.904 238.645 C 343.687 237.19 346.984 235.955 348.232 235.9 C 350.427 235.804 350.42 235.775 348 235 C 343.524 233.567 338.577 233.962 335.5 236 C 333.85 237.093 331.375 237.976 330 237.962 L 327.5 237.937 L 330.306 235.468 C 331.849 234.111 333.788 233 334.615 233 C 335.442 233 335.84 232.55 335.5 232 C 334.676 230.667 323.759 230.927 311.783 232.565 M 209.521 296.02 L 191.542 304.91 L 201.021 309.398 C 206.235 311.866 215.225 315.922 221 318.411 L 231.5 322.937 L 231.801 316.824 C 232.219 308.364 231.973 308.003 225.781 307.985 C 215.632 307.955 215.541 304.788 225.654 303.524 L 231 302.856 L 231 294.928 C 231 288.02 230.775 287.008 229.25 287.065 C 228.287 287.1 219.41 291.13 209.521 296.02 M 236.674 290.622 C 236.346 292.64 236.347 296.251 236.675 298.646 L 237.272 303 L 241.636 303 L 246 303 L 246 296.108 C 246 289.416 245.921 289.198 243.25 288.561 C 241.738 288.2 239.773 287.69 238.885 287.428 C 237.668 287.068 237.123 287.856 236.674 290.622 M 277.018 292.966 C 276.458 294.012 276 296.452 276 298.387 C 276 301.602 276.324 301.996 279.75 302.947 C 281.813 303.52 283.808 303.991 284.185 303.994 C 284.562 303.997 286.073 304.457 287.544 305.017 C 291.753 306.617 288.961 309 282.878 309 C 277.658 309 277.494 309.221 278.605 314.775 C 279.169 317.593 279.414 317.742 282.2 316.943 C 287.041 315.554 307.429 307.807 308.294 307.028 C 309.018 306.375 287.212 294.552 280.763 292.1 C 278.47 291.228 277.874 291.366 277.018 292.966 M 237 316.549 L 237 325.098 L 241.206 326.981 C 243.519 328.016 245.769 328.643 246.206 328.373 C 247.145 327.792 247.243 317.102 246.358 311.75 C 245.752 308.083 245.641 308 241.369 308 L 237 308 L 237 316.549 M 268 315.833 C 268 320.304 268.367 322 269.333 322 C 270.374 322 270.5 320.779 269.906 316.407 C 268.861 308.705 268 308.446 268 315.833 M 167.105 316.085 C 162.848 317.788 165.581 318.162 176.656 317.395 C 183.803 316.899 186.648 316.397 185 315.921 C 181.349 314.867 169.887 314.972 167.105 316.085 M 322 317 C 320.955 317.676 322.679 317.974 327.691 317.985 C 331.646 317.993 335.16 317.55 335.5 317 C 336.31 315.689 324.029 315.689 322 317 M 115 359 L 115 365 L 124 365 L 133 365 L 133 359 L 133 353 L 124 353 L 115 353 L 115 359 M 138.427 354.33 C 138.123 355.123 138.015 357.735 138.187 360.136 L 138.5 364.5 L 143.802 364.804 L 149.103 365.108 L 148.802 359.304 L 148.5 353.5 L 143.74 353.195 C 140.305 352.975 138.826 353.291 138.427 354.33 M 158.25 353.723 C 155.029 354.123 155 354.175 155 359.592 L 155 365.058 L 168.25 364.779 L 181.5 364.5 L 181.824 361.112 C 182.002 359.248 181.881 356.661 181.555 355.362 C 180.979 353.067 180.684 353.005 171.231 353.16 C 165.879 353.248 160.037 353.502 158.25 353.723 M 196.75 353.673 C 195.382 354.043 195 355.23 195 359.104 L 195 364.062 L 207.25 363.781 L 219.5 363.5 L 219.5 358.5 L 219.5 353.5 L 209 353.35 C 203.225 353.268 197.713 353.413 196.75 353.673 M 237 375.57 L 237 398.139 L 239.25 397.82 C 241.497 397.5 241.5 397.47 241.769 375.25 L 242.038 353 L 239.519 353 L 237 353 L 237 375.57 M 271.409 355.507 C 271.063 356.885 271.075 359.585 271.435 361.507 C 272.089 364.991 272.105 365 277.545 365 L 283 365 L 283 359 L 283 353 L 277.519 353 C 272.503 353 271.985 353.213 271.409 355.507 M 289.667 353.667 C 288.389 354.944 288.94 364.763 290.319 365.292 C 291.045 365.571 294.645 365.557 298.319 365.262 L 305 364.726 L 305 358.863 L 305 353 L 297.667 353 C 293.633 353 290.033 353.3 289.667 353.667 M 330.667 353.667 C 330.3 354.033 330 356.685 330 359.56 C 330 365.469 330.615 366 337.457 366 C 346.054 366 347.707 365.221 348.287 360.895 C 349.288 353.431 348.811 353 339.55 353 C 335.031 353 331.033 353.3 330.667 353.667 M 354 358.948 L 354 365 L 359.55 365 L 365.1 365 L 364.8 359.25 L 364.5 353.5 L 359.25 353.198 L 354 352.895 L 354 358.948 M 371 358.916 C 371 364.886 371.012 364.912 374.25 365.517 C 376.038 365.852 379.975 365.985 383 365.813 L 388.5 365.5 L 388.5 359.5 L 388.5 353.5 L 379.75 353.211 L 371 352.922 L 371 358.916 M 186.547 354.924 C 186.233 355.432 186.278 365.557 186.647 377.424 C 187.176 394.469 187.599 399 188.659 399 C 189.741 399 190 394.651 190 376.5 C 190 357.576 189.771 354 188.559 354 C 187.766 354 186.861 354.416 186.547 354.924 M 225.402 355.395 C 225.108 356.162 225.009 358.524 225.183 360.645 C 225.456 363.958 225.867 364.543 228.111 364.803 C 230.397 365.068 230.791 364.674 231.286 361.626 C 232.127 356.444 231.186 354 228.352 354 C 227.024 354 225.696 354.628 225.402 355.395 M 195.667 369.667 C 195.3 370.033 195 376.81 195 384.727 L 195 399.121 L 198.75 398.81 L 202.5 398.5 L 202.789 386 C 203.149 370.45 202.838 369 199.148 369 C 197.6 369 196.033 369.3 195.667 369.667 M 115 387.5 L 115 405 L 128.75 404.942 C 136.313 404.911 144.3 404.512 146.5 404.057 C 149.591 403.418 147.929 403.204 139.184 403.115 C 127.728 402.999 124 402.107 124 399.484 C 124 398.141 125.449 397.537 130.5 396.777 C 132.368 396.495 132.518 395.598 132.779 383.238 L 133.058 370 L 124.029 370 L 115 370 L 115 387.5 M 138.434 371.311 C 138.157 372.032 138.059 377.77 138.215 384.061 L 138.5 395.5 L 143.25 395.805 L 148 396.11 L 148 383.055 L 148 370 L 143.469 370 C 140.653 370 138.747 370.497 138.434 371.311 M 155 383.647 L 155 397.293 L 162.651 396.647 C 166.859 396.291 172.934 396 176.151 396 L 182 396 L 182 383 L 182 370 L 168.5 370 L 155 370 L 155 383.647 M 207 384.5 L 207 399 L 213 399 L 219 399 L 219 384.5 L 219 370 L 213 370 L 207 370 L 207 384.5 M 225.844 380.25 C 225.329 395.609 225.701 398 228.605 398 L 231 398 L 231 384 L 231 370 L 228.594 370 C 226.231 370 226.181 370.185 225.844 380.25 M 272 381.929 C 272 396.532 273.138 398.41 280.75 396.37 C 282.936 395.784 283 395.399 283 382.883 L 283 370 L 277.5 370 L 272 370 L 272 381.929 M 289.221 383.25 L 289.5 396.5 L 297 396.5 L 304.5 396.5 L 304.779 383.25 L 305.058 370 L 297 370 L 288.942 370 L 289.221 383.25 M 330 382.875 L 330 395.75 L 333.125 396.375 C 337.107 397.171 344.364 397.181 346.418 396.393 C 347.747 395.883 348 393.727 348 382.893 L 348 370 L 339 370 L 330 370 L 330 382.875 M 354.221 383.197 L 354.5 396.5 L 358 396.761 C 359.925 396.905 362.005 396.68 362.623 396.261 C 363.316 395.791 363.89 390.72 364.123 383 L 364.5 370.5 L 359.221 370.197 L 353.941 369.893 L 354.221 383.197 M 371 383.5 C 371 396.141 371.122 397 372.918 397 C 376.159 397 378 398.125 378 400.107 C 378 401.197 377.257 402.052 376.25 402.122 C 375.288 402.189 368.2 402.561 360.5 402.949 L 346.5 403.653 L 367.143 403.827 C 385.148 403.978 387.864 403.798 388.393 402.418 C 389.184 400.358 389.184 373.642 388.393 371.582 C 387.906 370.313 386.124 370 379.393 370 L 371 370 L 371 383.5 M 284.25 403.746 C 289.613 403.925 298.387 403.925 303.75 403.746 C 309.113 403.566 304.725 403.419 294 403.419 C 283.275 403.419 278.887 403.566 284.25 403.746 M 169.667 408.667 C 169.3 409.033 169 410.176 169 411.205 C 169 413.003 170.312 413.066 201.848 412.789 C 228.344 412.556 235.024 412.227 236.395 411.088 C 237.736 409.974 237.821 409.503 236.797 408.854 C 235.258 407.877 170.636 407.697 169.667 408.667" stroke-linecap="round" />
</g>
</svg>